<svg xmlns="http://www.w3.org/2000/svg" width="64" height="64" viewBox="0 0 64 64" fill="none">
<defs><clipPath id="c"><circle cx="32" cy="32" r="27.20"/></clipPath></defs>
<circle cx="32" cy="32" r="28.16" fill="#0D1F35" stroke="#4DFFB4" stroke-width="2.82"/>
<g clip-path="url(#c)">
<line x1="32.00" y1="15.39" x2="32.00" y2="3.84" stroke="#4DFFB4" stroke-width="1.41" opacity="0.28" stroke-linecap="round"/>
<line x1="40.84" y1="21.81" x2="55.80" y2="16.95" stroke="#4DFFB4" stroke-width="1.41" opacity="0.28" stroke-linecap="round"/>
<line x1="37.46" y1="32.20" x2="51.84" y2="51.98" stroke="#4DFFB4" stroke-width="1.41" opacity="0.28" stroke-linecap="round"/>
<line x1="26.54" y1="32.20" x2="12.16" y2="51.98" stroke="#4DFFB4" stroke-width="1.41" opacity="0.28" stroke-linecap="round"/>
<line x1="23.16" y1="21.81" x2="8.20" y2="16.95" stroke="#4DFFB4" stroke-width="1.41" opacity="0.28" stroke-linecap="round"/>
<path d="M32.00,15.39 L40.84,21.81 L37.46,32.20 L26.54,32.20 L23.16,21.81 Z" fill="#4DFFB4" fill-opacity="0.13" stroke="#4DFFB4" stroke-width="1.54" stroke-opacity="0.45" stroke-linejoin="round"/>
<line x1="11.72" y1="34.25" x2="52.28" y2="34.25" stroke="#4DFFB4" stroke-width="1.02" opacity="0.18"/>
<rect x="20.80" y="42.14" width="5.25" height="7.88" rx="1.68" fill="#4DFFB4" opacity="0.18"/>
<rect x="29.38" y="36.51" width="5.25" height="13.52" rx="1.68" fill="#4DFFB4" opacity="0.48"/>
<rect x="37.95" y="31.44" width="5.25" height="18.59" rx="1.68" fill="#4DFFB4" opacity="0.78"/>
<polyline points="23.42,42.14 32.00,36.51 40.58,31.44" stroke="#4DFFB4" stroke-width="3.07" stroke-linecap="round" stroke-linejoin="round" fill="none"/>
</g></svg>